# xmcd
#
# Track frame offsets: 
#        150
#        22447
#        42037
#        58975
#        79111
#        94488
#        110755
#        135351
#        147002
#        175450
#        189337
#        214578
#
# Disc length: 3154 seconds
#
# Revision: 0
# Processed by: cddbd v1.5.2PL0 Copyright (c) Steve Scherf et al.
# Submitted via: ExactAudioCopy v0.95b4
#
DISCID=af0c500c
DTITLE=Slipstream - Waterbound
DYEAR=2004
DGENRE=Bluegrass
TTITLE0=Rove Riley Rove
TTITLE1=Amesbury
TTITLE2=Slow Train Through Georgia
TTITLE3=Whiskey Death, Whiskey Blind
TTITLE4=Right Down There
TTITLE5=Flora, The Lily of the West
TTITLE6=Black Cove
TTITLE7=As Long As I Can See the Light
TTITLE8=Red Rocking Chair
TTITLE9=Tomorrow's Blues
TTITLE10=Monroe's Farewell to Long Hollow
TTITLE11=Waterbound
EXTD=
EXTT0=
EXTT1=
EXTT2=
EXTT3=
EXTT4=
EXTT5=
EXTT6=
EXTT7=
EXTT8=
EXTT9=
EXTT10=
EXTT11=
PLAYORDER=
